<?xml version="1.0" encoding="UTF-8"?>
<!DOCTYPE svg PUBLIC "-//W3C//DTD SVG 1.1//EN" "http://www.w3.org/Graphics/SVG/1.1/DTD/svg11.dtd">
<svg xmlns="http://www.w3.org/2000/svg" version="1.1" width="155px" height="127px" style="shape-rendering:geometricPrecision; text-rendering:geometricPrecision; image-rendering:optimizeQuality; fill-rule:evenodd; clip-rule:evenodd" xmlns:xlink="http://www.w3.org/1999/xlink">
<g><path style="opacity:0.057" fill="#f1f7f7" d="M 28.5,16.5 C 26.2188,16.0773 24.5521,16.744 23.5,18.5C 21.7673,17.9924 21.434,17.159 22.5,16C 24.7116,15.2109 26.7116,15.3775 28.5,16.5 Z"/></g>
<g><path style="opacity:0.033" fill="#f7f9fa" d="M 101.5,16.5 C 80.1401,15.8447 59.1401,16.5113 38.5,18.5C 36.7673,17.9924 36.434,17.159 37.5,16C 59.004,15.1706 80.3373,15.3373 101.5,16.5 Z"/></g>
<g><path style="opacity:0.035" fill="#f4f8f9" d="M 148.5,20.5 C 148.5,19.8333 148.5,19.1667 148.5,18.5C 149.043,18.44 149.376,18.1067 149.5,17.5C 140.342,16.1782 131.342,16.1782 122.5,17.5C 121.833,17.8333 121.167,18.1667 120.5,18.5C 120.414,17.5041 120.748,16.6708 121.5,16C 131.161,15.5002 140.828,15.3335 150.5,15.5C 150.88,17.698 150.213,19.3646 148.5,20.5 Z"/></g>
<g><path style="opacity:0.707" fill="#9ceff5" d="M 101.5,16.5 C 101.5,16.8333 101.5,17.1667 101.5,17.5C 101.5,27.5 101.5,37.5 101.5,47.5C 101.167,47.5 100.833,47.5 100.5,47.5C 100.5,46.8333 100.5,46.1667 100.5,45.5C 100.5,36.1667 100.5,26.8333 100.5,17.5C 91.8333,17.5 83.1667,17.5 74.5,17.5C 62.6547,17.1717 50.988,17.5051 39.5,18.5C 39.1667,18.5 38.8333,18.5 38.5,18.5C 59.1401,16.5113 80.1401,15.8447 101.5,16.5 Z"/></g>
<g><path style="opacity:0.702" fill="#94ecf3" d="M 122.5,17.5 C 131.342,16.1782 140.342,16.1782 149.5,17.5C 149.376,18.1067 149.043,18.44 148.5,18.5C 145.375,17.5206 142.042,17.1872 138.5,17.5C 133.167,17.5 127.833,17.5 122.5,17.5 Z"/></g>
<g><path style="opacity:0.475" fill="#dae9eb" d="M 11.5,18.5 C 10.5041,18.5858 9.67076,18.2524 9,17.5C 8.10929,20.4976 8.60929,23.1643 10.5,25.5C 9.5041,25.5858 8.67076,25.2524 8,24.5C 7.76378,22.236 7.26378,20.0693 6.5,18C 8.28957,14.8654 9.95624,15.0321 11.5,18.5 Z"/></g>
<g><path style="opacity:0.008" fill="#f6fafb" d="M 101.5,17.5 C 102.33,26.6577 102.83,35.991 103,45.5C 104.277,43.2528 105.777,41.2528 107.5,39.5C 105.833,42.8333 104.167,46.1667 102.5,49.5C 101.662,49.1583 101.328,48.4916 101.5,47.5C 101.5,37.5 101.5,27.5 101.5,17.5 Z"/></g>
<g><path style="opacity:0.569" fill="#cdf1f2" d="M 28.5,16.5 C 30.1898,16.8564 31.1898,17.8564 31.5,19.5C 29.3985,17.8911 27.0652,17.3911 24.5,18C 26.3734,19.7038 28.0401,21.5372 29.5,23.5C 26.9108,22.5806 24.9108,20.914 23.5,18.5C 24.5521,16.744 26.2188,16.0773 28.5,16.5 Z"/></g>
<g><path style="opacity:1" fill="#3ae9f5" d="M 98.5,20.5 C 97.8826,20.6107 97.3826,20.944 97,21.5C 96.1144,26.4702 95.4477,31.4702 95,36.5C 93.196,34.7225 92.3627,32.5559 92.5,30C 93.77,27.5323 94.6034,25.0323 95,22.5C 93.6713,21.5061 92.338,20.5061 91,19.5C 89.85,20.4239 88.85,20.4239 88,19.5C 86.661,26.4264 86.161,33.4264 86.5,40.5C 86.5858,41.4959 86.2524,42.3292 85.5,43C 82.4705,43.5746 79.8039,44.7413 77.5,46.5C 77.5,37.5 77.5,28.5 77.5,19.5C 81.0843,18.8685 84.7509,18.5352 88.5,18.5C 92.2386,18.5136 95.572,19.1803 98.5,20.5 Z"/></g>
<g><path style="opacity:0.008" fill="#dff0f3" d="M 38.5,18.5 C 38.8333,18.5 39.1667,18.5 39.5,18.5C 42.5,21.8333 45.5,25.1667 48.5,28.5C 44.1667,26.1667 40.8333,22.8333 38.5,18.5 Z"/></g>
<g><path style="opacity:1" fill="#3ce9f5" d="M 122.5,17.5 C 127.833,17.5 133.167,17.5 138.5,17.5C 138.649,18.552 138.483,19.552 138,20.5C 136.378,21.0989 134.878,21.7656 133.5,22.5C 129.685,23.5811 126.018,24.9144 122.5,26.5C 122.778,28.3464 122.111,29.6798 120.5,30.5C 118.679,29.2723 117.679,27.6056 117.5,25.5C 118.758,23.3131 119.758,20.9798 120.5,18.5C 121.167,18.1667 121.833,17.8333 122.5,17.5 Z"/></g>
<g><path style="opacity:0.027" fill="#e3f4f5" d="M 13.5,20.5 C 15.0269,20.427 16.0269,21.0937 16.5,22.5C 14.9731,22.573 13.9731,21.9063 13.5,20.5 Z"/></g>
<g><path style="opacity:0.004" fill="#e3f4f7" d="M 31.5,19.5 C 34.7843,21.117 37.4509,23.4503 39.5,26.5C 36.1898,24.8536 33.5232,22.5203 31.5,19.5 Z"/></g>
<g><path style="opacity:0.184" fill="#def4f5" d="M 120.5,18.5 C 119.758,20.9798 118.758,23.3131 117.5,25.5C 116.833,25.8333 116.167,26.1667 115.5,26.5C 116.383,23.2957 118.05,20.6291 120.5,18.5 Z"/></g>
<g><path style="opacity:1" fill="#3ee5ed" d="M 138.5,17.5 C 142.042,17.1872 145.375,17.5206 148.5,18.5C 148.5,19.1667 148.5,19.8333 148.5,20.5C 147.094,20.9731 146.427,21.9731 146.5,23.5C 144.75,24.6594 143.75,26.326 143.5,28.5C 143.167,28.5 142.833,28.5 142.5,28.5C 142.5,27.1667 142.5,25.8333 142.5,24.5C 140.302,24.1201 138.635,24.7868 137.5,26.5C 136.607,24.703 135.274,23.3696 133.5,22.5C 134.878,21.7656 136.378,21.0989 138,20.5C 138.483,19.552 138.649,18.552 138.5,17.5 Z"/></g>
<g><path style="opacity:1" fill="#67e5ee" d="M 31.5,19.5 C 33.5232,22.5203 36.1898,24.8536 39.5,26.5C 39.9731,27.9063 40.9731,28.573 42.5,28.5C 45.1784,31.523 44.5118,32.1897 40.5,30.5C 39.4863,29.3263 38.153,28.6596 36.5,28.5C 36.0269,27.0937 35.0269,26.427 33.5,26.5C 32.7377,24.7376 31.4044,23.7376 29.5,23.5C 28.0401,21.5372 26.3734,19.7038 24.5,18C 27.0652,17.3911 29.3985,17.8911 31.5,19.5 Z"/></g>
<g><path style="opacity:1" fill="#40e9f4" d="M 74.5,17.5 C 74.5,18.8333 74.5,20.1667 74.5,21.5C 74.5,22.5 74.5,23.5 74.5,24.5C 73.3263,25.5137 72.6596,26.847 72.5,28.5C 70.5,32.1667 68.5,35.8333 66.5,39.5C 65.391,39.4431 64.391,39.1098 63.5,38.5C 60.1389,36.4887 56.8056,34.4887 53.5,32.5C 52.5557,30.3121 50.889,28.9788 48.5,28.5C 45.5,25.1667 42.5,21.8333 39.5,18.5C 50.988,17.5051 62.6547,17.1717 74.5,17.5 Z"/></g>
<g><path style="opacity:0.075" fill="#e8f5f6" d="M 148.5,20.5 C 148.573,22.0269 147.906,23.0269 146.5,23.5C 146.427,21.9731 147.094,20.9731 148.5,20.5 Z"/></g>
<g><path style="opacity:0.475" fill="#d7f2f5" d="M 29.5,23.5 C 31.4044,23.7376 32.7377,24.7376 33.5,26.5C 31.5956,26.2624 30.2623,25.2624 29.5,23.5 Z"/></g>
<g><path style="opacity:0.122" fill="#e1f3f4" d="M 16.5,22.5 C 18.8525,23.3403 20.8525,24.6736 22.5,26.5C 19.8021,26.1551 17.8021,24.8218 16.5,22.5 Z"/></g>
<g><path style="opacity:1" fill="#5ae7f0" d="M 11.5,18.5 C 12.8333,18.5 13.5,19.1667 13.5,20.5C 13.9731,21.9063 14.9731,22.573 16.5,22.5C 17.8021,24.8218 19.8021,26.1551 22.5,26.5C 24.3356,28.588 26.6689,29.9213 29.5,30.5C 34.7563,33.6218 40.423,35.9551 46.5,37.5C 46.1583,38.3382 45.4916,38.6716 44.5,38.5C 40.8333,37.8333 37.1667,37.1667 33.5,36.5C 31.5615,34.8372 29.2282,34.1706 26.5,34.5C 25.8166,32.8235 24.4832,32.1568 22.5,32.5C 21.4863,31.3263 20.153,30.6596 18.5,30.5C 18.0269,29.0937 17.0269,28.427 15.5,28.5C 14.1007,27.1103 12.4341,26.1103 10.5,25.5C 8.60929,23.1643 8.10929,20.4976 9,17.5C 9.67076,18.2524 10.5041,18.5858 11.5,18.5 Z"/></g>
<g><path style="opacity:1" fill="#3ae3ef" d="M 133.5,22.5 C 135.274,23.3696 136.607,24.703 137.5,26.5C 137.217,27.2891 136.717,27.9558 136,28.5C 132.449,26.8868 129.949,27.8868 128.5,31.5C 124.267,30.763 120.6,32.0963 117.5,35.5C 115.929,34.6906 114.262,34.3573 112.5,34.5C 112.262,37.0685 110.929,38.7352 108.5,39.5C 109.11,38.609 109.443,37.609 109.5,36.5C 110.906,36.0269 111.573,35.0269 111.5,33.5C 112.89,32.1007 113.89,30.4341 114.5,28.5C 114.328,27.5084 114.662,26.8417 115.5,26.5C 116.167,26.1667 116.833,25.8333 117.5,25.5C 117.679,27.6056 118.679,29.2723 120.5,30.5C 122.111,29.6798 122.778,28.3464 122.5,26.5C 126.018,24.9144 129.685,23.5811 133.5,22.5 Z"/></g>
<g><path style="opacity:0.11" fill="#e7f4f5" d="M 146.5,23.5 C 146.25,25.674 145.25,27.3406 143.5,28.5C 143.75,26.326 144.75,24.6594 146.5,23.5 Z"/></g>
<g><path style="opacity:0.145" fill="#e1f2f5" d="M 10.5,25.5 C 12.4341,26.1103 14.1007,27.1103 15.5,28.5C 13.0672,28.7271 11.4006,27.7271 10.5,25.5 Z"/></g>
<g><path style="opacity:0.306" fill="#def0f2" d="M 33.5,26.5 C 35.0269,26.427 36.0269,27.0937 36.5,28.5C 34.9731,28.573 33.9731,27.9063 33.5,26.5 Z"/></g>
<g><path style="opacity:0.008" fill="#ebf6f6" d="M 39.5,26.5 C 41.0269,26.427 42.0269,27.0937 42.5,28.5C 40.9731,28.573 39.9731,27.9063 39.5,26.5 Z"/></g>
<g><path style="opacity:1" fill="#37eaf6" d="M 98.5,20.5 C 99.4889,25.9753 99.8222,31.642 99.5,37.5C 97.4727,37.3379 95.4727,37.5045 93.5,38C 91.8886,41.1472 89.5552,41.9806 86.5,40.5C 86.161,33.4264 86.661,26.4264 88,19.5C 88.85,20.4239 89.85,20.4239 91,19.5C 92.338,20.5061 93.6713,21.5061 95,22.5C 94.6034,25.0323 93.77,27.5323 92.5,30C 92.3627,32.5559 93.196,34.7225 95,36.5C 95.4477,31.4702 96.1144,26.4702 97,21.5C 97.3826,20.944 97.8826,20.6107 98.5,20.5 Z"/></g>
<g><path style="opacity:0.098" fill="#e1f3f5" d="M 22.5,26.5 C 25.3311,27.0787 27.6644,28.412 29.5,30.5C 26.6689,29.9213 24.3356,28.588 22.5,26.5 Z"/></g>
<g><path style="opacity:0.137" fill="#e0f2f4" d="M 74.5,24.5 C 74.7709,26.3797 74.1042,27.713 72.5,28.5C 72.6596,26.847 73.3263,25.5137 74.5,24.5 Z"/></g>
<g><path style="opacity:0.169" fill="#dcf1f4" d="M 15.5,28.5 C 17.0269,28.427 18.0269,29.0937 18.5,30.5C 16.9731,30.573 15.9731,29.9063 15.5,28.5 Z"/></g>
<g><path style="opacity:0.133" fill="#dcedef" d="M 36.5,28.5 C 38.153,28.6596 39.4863,29.3263 40.5,30.5C 38.6203,30.7709 37.287,30.1042 36.5,28.5 Z"/></g>
<g><path style="opacity:0.004" fill="#ebf6f9" d="M 142.5,28.5 C 142.833,28.5 143.167,28.5 143.5,28.5C 143.573,30.0269 142.906,31.0269 141.5,31.5C 141.263,30.209 141.596,29.209 142.5,28.5 Z"/></g>
<g><path style="opacity:0.204" fill="#dff2f4" d="M 114.5,28.5 C 113.89,30.4341 112.89,32.1007 111.5,33.5C 111.273,31.0672 112.273,29.4006 114.5,28.5 Z"/></g>
<g><path style="opacity:0.078" fill="#e4f1f4" d="M 18.5,30.5 C 20.153,30.6596 21.4863,31.3263 22.5,32.5C 20.6203,32.7709 19.287,32.1042 18.5,30.5 Z"/></g>
<g><path style="opacity:0.31" fill="#c1ecef" d="M 48.5,28.5 C 50.889,28.9788 52.5557,30.3121 53.5,32.5C 52.8333,32.5 52.1667,32.5 51.5,32.5C 50.2112,31.3634 49.2112,30.0301 48.5,28.5 Z"/></g>
<g><path style="opacity:0.804" fill="#c3ebf2" d="M 22.5,32.5 C 24.4832,32.1568 25.8166,32.8235 26.5,34.5C 24.847,34.3404 23.5137,33.6737 22.5,32.5 Z"/></g>
<g><path style="opacity:0.016" fill="#e7f5f6" d="M 141.5,31.5 C 141.573,33.0269 140.906,34.0269 139.5,34.5C 139.427,32.9731 140.094,31.9731 141.5,31.5 Z"/></g>
<g><path style="opacity:0.118" fill="#ddf1f3" d="M 29.5,30.5 C 36.0084,32.5978 42.3418,34.9311 48.5,37.5C 47.8333,37.5 47.1667,37.5 46.5,37.5C 40.423,35.9551 34.7563,33.6218 29.5,30.5 Z"/></g>
<g><path style="opacity:1" fill="#35d6e9" d="M 142.5,28.5 C 141.596,29.209 141.263,30.209 141.5,31.5C 140.094,31.9731 139.427,32.9731 139.5,34.5C 137.147,36.8599 135.147,39.5265 133.5,42.5C 131.821,42.2852 130.821,42.9519 130.5,44.5C 128.255,43.7081 127.922,42.3747 129.5,40.5C 129.938,40.5654 130.272,40.3988 130.5,40C 127.6,36.8307 125.1,37.3307 123,41.5C 122.444,39.1152 122.61,36.7819 123.5,34.5C 124.117,34.6107 124.617,34.944 125,35.5C 126.627,34.4677 127.793,33.1344 128.5,31.5C 129.949,27.8868 132.449,26.8868 136,28.5C 136.717,27.9558 137.217,27.2891 137.5,26.5C 138.635,24.7868 140.302,24.1201 142.5,24.5C 142.5,25.8333 142.5,27.1667 142.5,28.5 Z"/></g>
<g><path style="opacity:0.827" fill="#bbebef" d="M 26.5,34.5 C 29.2282,34.1706 31.5615,34.8372 33.5,36.5C 30.8478,36.5905 28.5145,35.9238 26.5,34.5 Z"/></g>
<g><path style="opacity:0.502" fill="#d0ebef" d="M 42.5,28.5 C 45.3516,30.0909 48.3516,31.4242 51.5,32.5C 52.1667,33.8333 52.8333,33.8333 53.5,32.5C 56.8056,34.4887 60.1389,36.4887 63.5,38.5C 58.4483,39.5793 53.4483,39.2459 48.5,37.5C 49.7733,36.9232 49.7733,36.2565 48.5,35.5C 45.7231,33.8213 43.0564,32.1546 40.5,30.5C 44.5118,32.1897 45.1784,31.523 42.5,28.5 Z"/></g>
<g><path style="opacity:0.004" fill="#e1f4f6" d="M 72.5,28.5 C 69.7816,37.3478 66.1149,45.6811 61.5,53.5C 61.5,53.1667 61.5,52.8333 61.5,52.5C 62.4986,49.8382 63.4986,47.1716 64.5,44.5C 65.9313,43.2196 66.5979,41.5529 66.5,39.5C 68.5,35.8333 70.5,32.1667 72.5,28.5 Z"/></g>
<g><path style="opacity:0.306" fill="#d6f0f2" d="M 111.5,33.5 C 111.573,35.0269 110.906,36.0269 109.5,36.5C 109.427,34.9731 110.094,33.9731 111.5,33.5 Z"/></g>
<g><path style="opacity:1" fill="#30d9eb" d="M 128.5,31.5 C 127.793,33.1344 126.627,34.4677 125,35.5C 124.617,34.944 124.117,34.6107 123.5,34.5C 122.5,34.5 121.5,34.5 120.5,34.5C 120.662,36.5273 120.495,38.5273 120,40.5C 117.75,41.7079 115.583,43.0413 113.5,44.5C 109.529,45.6952 107.862,44.0285 108.5,39.5C 110.929,38.7352 112.262,37.0685 112.5,34.5C 114.262,34.3573 115.929,34.6906 117.5,35.5C 120.6,32.0963 124.267,30.763 128.5,31.5 Z"/></g>
<g><path style="opacity:0.165" fill="#dff0f3" d="M 109.5,36.5 C 109.443,37.609 109.11,38.609 108.5,39.5C 108.167,39.5 107.833,39.5 107.5,39.5C 107.427,37.9731 108.094,36.9731 109.5,36.5 Z"/></g>
<g><path style="opacity:0.031" fill="#e3f2f6" d="M 139.5,34.5 C 137.913,38.6829 135.579,42.3495 132.5,45.5C 132.557,44.391 132.89,43.391 133.5,42.5C 135.147,39.5265 137.147,36.8599 139.5,34.5 Z"/></g>
<g><path style="opacity:0.041" fill="#e7f2f4" d="M 20.5,37.5 C 22.8273,37.2471 24.8273,37.9137 26.5,39.5C 20.2015,40.4963 13.8682,40.8297 7.5,40.5C 7.5,37.8333 7.5,35.1667 7.5,32.5C 12.2231,33.3697 16.5564,35.0363 20.5,37.5 Z"/></g>
<g><path style="opacity:0.933" fill="#62e7ef" d="M 20.5,37.5 C 21.2625,38.2679 22.2625,38.7679 23.5,39C 18.5111,39.4993 13.5111,39.6659 8.5,39.5C 8.5,37.8333 8.5,36.1667 8.5,34.5C 12.4848,35.4881 16.4848,36.4881 20.5,37.5 Z"/></g>
<g><path style="opacity:0.015" fill="#e3f6f8" d="M 33.5,36.5 C 37.1667,37.1667 40.8333,37.8333 44.5,38.5C 47.6754,39.4287 51.0087,40.262 54.5,41C 52.5273,41.4955 50.5273,41.6621 48.5,41.5C 47.1667,40.1667 45.8333,40.1667 44.5,41.5C 43.1667,41.5 41.8333,41.5 40.5,41.5C 41.2625,40.7321 42.2625,40.2321 43.5,40C 39.7549,39.6978 36.4216,38.5312 33.5,36.5 Z"/></g>
<g><path style="opacity:1" fill="#37e3ee" d="M 74.5,17.5 C 83.1667,17.5 91.8333,17.5 100.5,17.5C 100.5,26.8333 100.5,36.1667 100.5,45.5C 99.8826,45.6107 99.3826,45.944 99,46.5C 96.4751,41.3678 94.6418,41.2012 93.5,46C 91.8876,46.7203 90.3876,46.5536 89,45.5C 87.103,47.0163 84.9363,47.683 82.5,47.5C 82.7852,49.288 82.4519,50.9547 81.5,52.5C 80.7174,50.7118 79.3841,49.7118 77.5,49.5C 77.5,48.5 77.5,47.5 77.5,46.5C 79.8039,44.7413 82.4705,43.5746 85.5,43C 86.2524,42.3292 86.5858,41.4959 86.5,40.5C 89.5552,41.9806 91.8886,41.1472 93.5,38C 95.4727,37.5045 97.4727,37.3379 99.5,37.5C 99.8222,31.642 99.4889,25.9753 98.5,20.5C 95.572,19.1803 92.2386,18.5136 88.5,18.5C 84.7509,18.5352 81.0843,18.8685 77.5,19.5C 76.5084,19.3284 75.8417,19.6618 75.5,20.5C 75.5,21.1667 75.1667,21.5 74.5,21.5C 74.5,20.1667 74.5,18.8333 74.5,17.5 Z"/></g>
<g><path style="opacity:1" fill="#33d1e7" d="M 123.5,34.5 C 122.61,36.7819 122.444,39.1152 123,41.5C 125.1,37.3307 127.6,36.8307 130.5,40C 130.272,40.3988 129.938,40.5654 129.5,40.5C 128.85,40.1961 128.183,39.8627 127.5,39.5C 126.099,41.2773 124.599,42.944 123,44.5C 122.333,43.8333 121.667,43.1667 121,42.5C 118.656,44.1813 116.323,45.848 114,47.5C 111.867,46.6472 109.867,46.3139 108,46.5C 107.82,48.4884 107.986,50.4884 108.5,52.5C 106.708,52.634 105.042,52.3007 103.5,51.5C 102.662,51.1583 102.328,50.4916 102.5,49.5C 104.167,46.1667 105.833,42.8333 107.5,39.5C 107.833,39.5 108.167,39.5 108.5,39.5C 107.862,44.0285 109.529,45.6952 113.5,44.5C 115.583,43.0413 117.75,41.7079 120,40.5C 120.495,38.5273 120.662,36.5273 120.5,34.5C 121.5,34.5 122.5,34.5 123.5,34.5 Z"/></g>
<g><path style="opacity:0.996" fill="#7ddee5" d="M 46.5,37.5 C 47.1667,37.5 47.8333,37.5 48.5,37.5C 53.4483,39.2459 58.4483,39.5793 63.5,38.5C 64.391,39.1098 65.391,39.4431 66.5,39.5C 66.5979,41.5529 65.9313,43.2196 64.5,44.5C 58.0621,42.8498 51.3954,41.8498 44.5,41.5C 45.8333,41.5 47.1667,41.5 48.5,41.5C 50.5273,41.6621 52.5273,41.4955 54.5,41C 51.0087,40.262 47.6754,39.4287 44.5,38.5C 45.4916,38.6716 46.1583,38.3382 46.5,37.5 Z"/></g>
<g><path style="opacity:0.039" fill="#eff7f8" d="M 39.5,41.5 C 38.2719,42.3065 37.2719,43.3065 36.5,44.5C 36.183,41.4655 37.183,40.4655 39.5,41.5 Z"/></g>
<g><path style="opacity:1" fill="#38eaf5" d="M 53.5,54.5 C 47.2898,56.7145 41.2898,59.3812 35.5,62.5C 34.448,62.6495 33.448,62.4828 32.5,62C 33.2489,60.2663 33.7489,58.433 34,56.5C 35.0852,57.2931 36.2519,57.9598 37.5,58.5C 38.043,54.025 39.043,49.6917 40.5,45.5C 40.2907,44.914 39.9574,44.414 39.5,44C 44.6378,43.1804 49.6378,43.6804 54.5,45.5C 55.641,47.4213 55.8077,49.4213 55,51.5C 53.9887,52.3366 52.8221,52.67 51.5,52.5C 51.5,51.5 51.5,50.5 51.5,49.5C 47.9007,49.2619 47.5673,50.2619 50.5,52.5C 50.2907,53.086 49.9574,53.586 49.5,54C 50.7932,54.49 52.1266,54.6567 53.5,54.5 Z"/></g>
<g><path style="opacity:1" fill="#42e8f3" d="M 39.5,41.5 C 39.8333,41.5 40.1667,41.5 40.5,41.5C 41.8333,41.5 43.1667,41.5 44.5,41.5C 51.3954,41.8498 58.0621,42.8498 64.5,44.5C 63.4986,47.1716 62.4986,49.8382 61.5,52.5C 60.5041,52.4142 59.6708,52.7476 59,53.5C 58.6667,52.8333 58.3333,52.1667 58,51.5C 57.0816,53.3757 55.5816,54.3757 53.5,54.5C 52.1266,54.6567 50.7932,54.49 49.5,54C 49.9574,53.586 50.2907,53.086 50.5,52.5C 47.5673,50.2619 47.9007,49.2619 51.5,49.5C 51.5,50.5 51.5,51.5 51.5,52.5C 52.8221,52.67 53.9887,52.3366 55,51.5C 55.8077,49.4213 55.641,47.4213 54.5,45.5C 49.6378,43.6804 44.6378,43.1804 39.5,44C 39.9574,44.414 40.2907,44.914 40.5,45.5C 39.043,49.6917 38.043,54.025 37.5,58.5C 36.2519,57.9598 35.0852,57.2931 34,56.5C 33.7489,58.433 33.2489,60.2663 32.5,62C 33.448,62.4828 34.448,62.6495 35.5,62.5C 35.6716,63.4916 35.3382,64.1583 34.5,64.5C 30.2592,64.8085 27.9259,67.1418 27.5,71.5C 26.7025,71.0431 26.3691,70.3764 26.5,69.5C 27.4552,67.2543 28.1218,64.921 28.5,62.5C 28.3284,61.5084 28.6618,60.8417 29.5,60.5C 32.1648,58.1645 33.4982,55.1645 33.5,51.5C 35.4484,49.6796 36.4484,47.3462 36.5,44.5C 37.2719,43.3065 38.2719,42.3065 39.5,41.5 Z"/></g>
<g><path style="opacity:1" fill="#2acbe3" d="M 129.5,40.5 C 127.922,42.3747 128.255,43.7081 130.5,44.5C 129.415,46.5822 127.915,46.9156 126,45.5C 123.667,46.5 122,48.1667 121,50.5C 118.219,50.1313 115.552,50.1313 113,50.5C 110.968,52.7733 108.468,54.44 105.5,55.5C 103.889,54.6798 103.222,53.3464 103.5,51.5C 105.042,52.3007 106.708,52.634 108.5,52.5C 107.986,50.4884 107.82,48.4884 108,46.5C 109.867,46.3139 111.867,46.6472 114,47.5C 116.323,45.848 118.656,44.1813 121,42.5C 121.667,43.1667 122.333,43.8333 123,44.5C 124.599,42.944 126.099,41.2773 127.5,39.5C 128.183,39.8627 128.85,40.1961 129.5,40.5 Z"/></g>
<g><path style="opacity:0.702" fill="#cef4f6" d="M 36.5,44.5 C 36.4484,47.3462 35.4484,49.6796 33.5,51.5C 33.7073,48.7594 34.7073,46.4261 36.5,44.5 Z"/></g>
<g><path style="opacity:0.027" fill="#f5f8f9" d="M 75.5,20.5 C 76.4954,32.989 76.8287,45.6557 76.5,58.5C 75.8771,65.2547 76.5437,71.588 78.5,77.5C 78.1788,79.0481 77.1788,79.7148 75.5,79.5C 75.8302,60.9924 75.4968,42.6591 74.5,24.5C 74.5,23.5 74.5,22.5 74.5,21.5C 75.1667,21.5 75.5,21.1667 75.5,20.5 Z"/></g>
<g><path style="opacity:1" fill="#38c5de" d="M 133.5,42.5 C 132.89,43.391 132.557,44.391 132.5,45.5C 129.589,48.9895 126.922,52.6562 124.5,56.5C 123.115,55.4264 121.949,54.0931 121,52.5C 120.601,52.7284 120.435,53.0618 120.5,53.5C 115.518,53.9774 110.851,55.644 106.5,58.5C 105.5,57.8333 104.5,57.1667 103.5,56.5C 102.735,57.6119 101.735,58.2786 100.5,58.5C 101.623,56.0213 101.623,53.688 100.5,51.5C 100.5,50.1667 100.5,48.8333 100.5,47.5C 100.833,47.5 101.167,47.5 101.5,47.5C 101.328,48.4916 101.662,49.1583 102.5,49.5C 102.328,50.4916 102.662,51.1583 103.5,51.5C 103.222,53.3464 103.889,54.6798 105.5,55.5C 108.468,54.44 110.968,52.7733 113,50.5C 115.552,50.1313 118.219,50.1313 121,50.5C 122,48.1667 123.667,46.5 126,45.5C 127.915,46.9156 129.415,46.5822 130.5,44.5C 130.821,42.9519 131.821,42.2852 133.5,42.5 Z"/></g>
<g><path style="opacity:0.64" fill="#8fe5ec" d="M 75.5,20.5 C 75.8417,19.6618 76.5084,19.3284 77.5,19.5C 77.5,28.5 77.5,37.5 77.5,46.5C 77.5,47.5 77.5,48.5 77.5,49.5C 77.5,52.5 77.5,55.5 77.5,58.5C 77.1667,58.5 76.8333,58.5 76.5,58.5C 76.8287,45.6557 76.4954,32.989 75.5,20.5 Z"/></g>
<g><path style="opacity:1" fill="#31d5e9" d="M 100.5,45.5 C 100.5,46.1667 100.5,46.8333 100.5,47.5C 100.5,48.8333 100.5,50.1667 100.5,51.5C 99.8333,51.5 99.5,51.8333 99.5,52.5C 97.5956,52.7376 96.2623,53.7376 95.5,55.5C 95.1667,55.5 94.8333,55.5 94.5,55.5C 94.44,54.9569 94.1067,54.6236 93.5,54.5C 91.0577,58.851 87.5577,60.5177 83,59.5C 81.8904,61.0368 80.3904,61.7035 78.5,61.5C 78.7373,62.791 78.404,63.791 77.5,64.5C 77.5,62.5 77.5,60.5 77.5,58.5C 77.5,55.5 77.5,52.5 77.5,49.5C 79.3841,49.7118 80.7174,50.7118 81.5,52.5C 82.4519,50.9547 82.7852,49.288 82.5,47.5C 84.9363,47.683 87.103,47.0163 89,45.5C 90.3876,46.5536 91.8876,46.7203 93.5,46C 94.6418,41.2012 96.4751,41.3678 99,46.5C 99.3826,45.944 99.8826,45.6107 100.5,45.5 Z"/></g>
<g><path style="opacity:0.114" fill="#ddeef3" d="M 132.5,45.5 C 130.582,50.3434 127.916,54.6767 124.5,58.5C 124.5,57.8333 124.5,57.1667 124.5,56.5C 126.922,52.6562 129.589,48.9895 132.5,45.5 Z"/></g>
<g><path style="opacity:1" fill="#36bfdc" d="M 120.5,53.5 C 118.417,54.9013 116.417,56.568 114.5,58.5C 108.459,59.1442 103.792,61.8108 100.5,66.5C 100.672,67.4916 100.338,68.1583 99.5,68.5C 99.2529,65.0613 99.5863,61.728 100.5,58.5C 101.735,58.2786 102.735,57.6119 103.5,56.5C 104.5,57.1667 105.5,57.8333 106.5,58.5C 110.851,55.644 115.518,53.9774 120.5,53.5 Z"/></g>
<g><path style="opacity:0.863" fill="#bdeff2" d="M 33.5,51.5 C 33.4982,55.1645 32.1648,58.1645 29.5,60.5C 30.4521,57.3025 31.7855,54.3025 33.5,51.5 Z"/></g>
<g><path style="opacity:0.633" fill="#86d0e0" d="M 76.5,58.5 C 76.8333,58.5 77.1667,58.5 77.5,58.5C 77.5,60.5 77.5,62.5 77.5,64.5C 76.931,68.3293 77.5977,71.6627 79.5,74.5C 78.8902,75.391 78.5569,76.391 78.5,77.5C 76.5437,71.588 75.8771,65.2547 76.5,58.5 Z"/></g>
<g><path style="opacity:0.033" fill="#e3eff3" d="M 100.5,51.5 C 101.623,53.688 101.623,56.0213 100.5,58.5C 99.5863,61.728 99.2529,65.0613 99.5,68.5C 99.5,72.5 99.5,76.5 99.5,80.5C 99.5,81.1667 99.5,81.8333 99.5,82.5C 98.8333,76.5 98.1667,70.5 97.5,64.5C 98.0138,62.4884 98.1805,60.4884 98,58.5C 96.7874,60.9252 95.6207,63.2585 94.5,65.5C 94.6716,64.5084 94.3382,63.8417 93.5,63.5C 95.5,59.8333 97.5,56.1667 99.5,52.5C 99.5,51.8333 99.8333,51.5 100.5,51.5 Z"/></g>
<g><path style="opacity:1" fill="#2ab8df" d="M 124.5,56.5 C 124.5,57.1667 124.5,57.8333 124.5,58.5C 122.271,60.0993 121.938,62.0993 123.5,64.5C 121.824,63.8166 121.157,62.4832 121.5,60.5C 116.943,61.7341 112.276,62.9007 107.5,64C 105.667,64.5 104.5,65.6667 104,67.5C 102.989,66.6634 101.822,66.33 100.5,66.5C 103.792,61.8108 108.459,59.1442 114.5,58.5C 116.417,56.568 118.417,54.9013 120.5,53.5C 120.435,53.0618 120.601,52.7284 121,52.5C 121.949,54.0931 123.115,55.4264 124.5,56.5 Z"/></g>
<g><path style="opacity:1" fill="#34e3ee" d="M 61.5,52.5 C 61.5,52.8333 61.5,53.1667 61.5,53.5C 59.9291,55.6351 58.5957,57.9684 57.5,60.5C 56.8485,59.9094 56.1818,59.2427 55.5,58.5C 53.36,59.4733 51.6933,60.9733 50.5,63C 48.8876,63.7203 47.3876,63.5536 46,62.5C 44.965,65.7864 43.465,66.1197 41.5,63.5C 40.1189,65.9369 38.2856,67.2702 36,67.5C 34.9614,66.7562 34.4614,65.7562 34.5,64.5C 35.3382,64.1583 35.6716,63.4916 35.5,62.5C 41.2898,59.3812 47.2898,56.7145 53.5,54.5C 55.5816,54.3757 57.0816,53.3757 58,51.5C 58.3333,52.1667 58.6667,52.8333 59,53.5C 59.6708,52.7476 60.5041,52.4142 61.5,52.5 Z"/></g>
<g><path style="opacity:1" fill="#29afd8" d="M 123.5,64.5 C 124.272,65.6935 125.272,66.6935 126.5,67.5C 126.557,68.609 126.89,69.609 127.5,70.5C 126.25,70.4226 125.417,69.756 125,68.5C 124.5,69 124,69.5 123.5,70C 119.848,70.4986 116.182,70.6653 112.5,70.5C 110.193,70.0137 108.027,70.0137 106,70.5C 104.324,69.9389 102.991,68.9389 102,67.5C 101.825,70.1572 101.992,72.8239 102.5,75.5C 100.972,76.8021 99.9724,78.4687 99.5,80.5C 99.5,76.5 99.5,72.5 99.5,68.5C 100.338,68.1583 100.672,67.4916 100.5,66.5C 101.822,66.33 102.989,66.6634 104,67.5C 104.5,65.6667 105.667,64.5 107.5,64C 112.276,62.9007 116.943,61.7341 121.5,60.5C 121.157,62.4832 121.824,63.8166 123.5,64.5 Z"/></g>
<g><path style="opacity:0.106" fill="#e2eff4" d="M 124.5,58.5 C 124.461,59.5832 124.127,60.5832 123.5,61.5C 125.038,63.2433 126.038,65.2433 126.5,67.5C 125.272,66.6935 124.272,65.6935 123.5,64.5C 121.938,62.0993 122.271,60.0993 124.5,58.5 Z"/></g>
<g><path style="opacity:0.012" fill="#def1f4" d="M 61.5,53.5 C 58.6082,62.2736 54.9416,70.607 50.5,78.5C 50.767,76.0347 51.4336,73.7014 52.5,71.5C 54.4407,67.9523 56.1074,64.2857 57.5,60.5C 58.5957,57.9684 59.9291,55.6351 61.5,53.5 Z"/></g>
<g><path style="opacity:0.009" fill="#e0eff2" d="M 94.5,55.5 C 94.8333,55.5 95.1667,55.5 95.5,55.5C 92.8129,60.7963 89.4795,66.1296 85.5,71.5C 85.631,70.7611 85.4643,70.0944 85,69.5C 84.2917,70.3805 83.4584,71.0472 82.5,71.5C 82.7376,69.5956 83.7376,68.2623 85.5,67.5C 88.4756,63.5185 91.4756,59.5185 94.5,55.5 Z"/></g>
<g><path style="opacity:1" fill="#33dced" d="M 57.5,60.5 C 56.1074,64.2857 54.4407,67.9523 52.5,71.5C 50.9642,69.9749 49.9642,67.9749 49.5,65.5C 46.7423,69.2766 43.0757,71.2766 38.5,71.5C 38.5,72.5 38.5,73.5 38.5,74.5C 36.0901,74.0791 34.2568,72.7458 33,70.5C 31.4933,71.5046 30.3267,72.838 29.5,74.5C 28.0951,74.24 26.7618,73.9066 25.5,73.5C 25.5,72.1667 25.5,70.8333 25.5,69.5C 25.8333,69.5 26.1667,69.5 26.5,69.5C 26.3691,70.3764 26.7025,71.0431 27.5,71.5C 27.9259,67.1418 30.2592,64.8085 34.5,64.5C 34.4614,65.7562 34.9614,66.7562 36,67.5C 38.2856,67.2702 40.1189,65.9369 41.5,63.5C 43.465,66.1197 44.965,65.7864 46,62.5C 47.3876,63.5536 48.8876,63.7203 50.5,63C 51.6933,60.9733 53.36,59.4733 55.5,58.5C 56.1818,59.2427 56.8485,59.9094 57.5,60.5 Z"/></g>
<g><path style="opacity:1" fill="#3ac4de" d="M 94.5,55.5 C 91.4756,59.5185 88.4756,63.5185 85.5,67.5C 83.7376,68.2623 82.7376,69.5956 82.5,71.5C 81.0937,71.9731 80.427,72.9731 80.5,74.5C 80.1667,74.5 79.8333,74.5 79.5,74.5C 77.5977,71.6627 76.931,68.3293 77.5,64.5C 78.404,63.791 78.7373,62.791 78.5,61.5C 80.3904,61.7035 81.8904,61.0368 83,59.5C 87.5577,60.5177 91.0577,58.851 93.5,54.5C 94.1067,54.6236 94.44,54.9569 94.5,55.5 Z"/></g>
<g><path style="opacity:0.575" fill="#c1dde5" d="M 97.5,64.5 C 97.2785,67.0673 96.6118,69.4006 95.5,71.5C 95.6567,70.1266 95.49,68.7932 95,67.5C 94.4338,69.7226 93.6005,71.7226 92.5,73.5C 92.2826,70.5794 92.9493,67.9128 94.5,65.5C 95.6207,63.2585 96.7874,60.9252 98,58.5C 98.1805,60.4884 98.0138,62.4884 97.5,64.5 Z"/></g>
<g><path style="opacity:0.133" fill="#e0f0f2" d="M 28.5,62.5 C 28.1218,64.921 27.4552,67.2543 26.5,69.5C 26.1667,69.5 25.8333,69.5 25.5,69.5C 25.7073,66.7594 26.7073,64.4261 28.5,62.5 Z"/></g>
<g><path style="opacity:1" fill="#33d0e5" d="M 52.5,71.5 C 51.4336,73.7014 50.767,76.0347 50.5,78.5C 48.8958,79.287 48.2291,80.6203 48.5,82.5C 48.1667,82.5 47.8333,82.5 47.5,82.5C 47.5,81.5 47.5,80.5 47.5,79.5C 47.5,78.1667 47.5,76.8333 47.5,75.5C 46.5,75.5 45.5,75.5 44.5,75.5C 43.6897,77.7983 42.8564,80.1316 42,82.5C 41.31,83.7383 40.81,83.7383 40.5,82.5C 39.2086,81.5272 39.2086,80.5272 40.5,79.5C 39.3112,78.5713 37.9778,78.238 36.5,78.5C 36.7329,76.9382 37.3995,75.6049 38.5,74.5C 38.5,73.5 38.5,72.5 38.5,71.5C 43.0757,71.2766 46.7423,69.2766 49.5,65.5C 49.9642,67.9749 50.9642,69.9749 52.5,71.5 Z"/></g>
<g><path style="opacity:1" fill="#27a9d6" d="M 112.5,70.5 C 111.993,71.8589 110.993,72.8589 109.5,73.5C 110.18,74.8599 110.847,76.1932 111.5,77.5C 108.966,77.2591 107.3,78.2591 106.5,80.5C 105.833,80.5 105.167,80.5 104.5,80.5C 104.573,78.9731 103.906,77.9731 102.5,77.5C 102.5,76.8333 102.5,76.1667 102.5,75.5C 101.992,72.8239 101.825,70.1572 102,67.5C 102.991,68.9389 104.324,69.9389 106,70.5C 108.027,70.0137 110.193,70.0137 112.5,70.5 Z"/></g>
<g><path style="opacity:0.212" fill="#d9e9f1" d="M 126.5,67.5 C 127.906,67.9731 128.573,68.9731 128.5,70.5C 128.167,70.5 127.833,70.5 127.5,70.5C 126.89,69.609 126.557,68.609 126.5,67.5 Z"/></g>
<g><path style="opacity:1" fill="#1ea3d4" d="M 127.5,70.5 C 127.833,70.5 128.167,70.5 128.5,70.5C 128.427,72.0269 129.094,73.0269 130.5,73.5C 130.557,74.609 130.89,75.609 131.5,76.5C 130.833,76.5 130.167,76.5 129.5,76.5C 126.962,72.5468 124.295,72.5468 121.5,76.5C 120.904,75.2839 120.737,73.9506 121,72.5C 117.469,73.5235 114.302,75.1901 111.5,77.5C 110.847,76.1932 110.18,74.8599 109.5,73.5C 110.993,72.8589 111.993,71.8589 112.5,70.5C 116.182,70.6653 119.848,70.4986 123.5,70C 124,69.5 124.5,69 125,68.5C 125.417,69.756 126.25,70.4226 127.5,70.5 Z"/></g>
<g><path style="opacity:0.945" fill="#7bc4da" d="M 99.5,52.5 C 97.5,56.1667 95.5,59.8333 93.5,63.5C 92.6743,66.4848 91.341,69.1515 89.5,71.5C 88.0687,72.7804 87.4021,74.4471 87.5,76.5C 87.1667,76.5 86.8333,76.5 86.5,76.5C 86.6309,75.6236 86.2975,74.9569 85.5,74.5C 84.6424,76.9009 83.309,78.9009 81.5,80.5C 82.0421,77.0878 83.3754,74.0878 85.5,71.5C 89.4795,66.1296 92.8129,60.7963 95.5,55.5C 96.2623,53.7376 97.5956,52.7376 99.5,52.5 Z"/></g>
<g><path style="opacity:0.027" fill="#e3eef1" d="M 82.5,71.5 C 82.573,73.0269 81.9063,74.0269 80.5,74.5C 80.427,72.9731 81.0937,71.9731 82.5,71.5 Z"/></g>
<g><path style="opacity:0.173" fill="#deeaf0" d="M 128.5,70.5 C 129.906,70.9731 130.573,71.9731 130.5,73.5C 129.094,73.0269 128.427,72.0269 128.5,70.5 Z"/></g>
<g><path style="opacity:0.176" fill="#d5eef2" d="M 25.5,69.5 C 25.5,70.8333 25.5,72.1667 25.5,73.5C 23.5879,75.6572 21.9213,77.9906 20.5,80.5C 21.3764,76.4179 23.0431,72.7512 25.5,69.5 Z"/></g>
<g><path style="opacity:0.255" fill="#d0e5ed" d="M 89.5,71.5 C 89.5979,73.5529 88.9313,75.2196 87.5,76.5C 87.4021,74.4471 88.0687,72.7804 89.5,71.5 Z"/></g>
<g><path style="opacity:1" fill="#1b9ace" d="M 129.5,76.5 C 127.376,77.0312 125.876,78.3645 125,80.5C 123.89,78.9632 122.39,78.2965 120.5,78.5C 120.5,79.8333 120.5,81.1667 120.5,82.5C 119.244,82.5386 118.244,82.0386 117.5,81C 118.833,80.3333 118.833,79.6667 117.5,79C 114.493,78.6987 111.493,78.8654 108.5,79.5C 108.5,81.1667 108.5,82.8333 108.5,84.5C 108.167,84.5 107.833,84.5 107.5,84.5C 107.167,83.1667 106.833,81.8333 106.5,80.5C 107.3,78.2591 108.966,77.2591 111.5,77.5C 114.302,75.1901 117.469,73.5235 121,72.5C 120.737,73.9506 120.904,75.2839 121.5,76.5C 124.295,72.5468 126.962,72.5468 129.5,76.5 Z"/></g>
<g><path style="opacity:1" fill="#33d3e8" d="M 38.5,74.5 C 37.3995,75.6049 36.7329,76.9382 36.5,78.5C 31.8063,81.9248 26.473,83.2581 20.5,82.5C 20.5,81.8333 20.5,81.1667 20.5,80.5C 21.9213,77.9906 23.5879,75.6572 25.5,73.5C 26.7618,73.9066 28.0951,74.24 29.5,74.5C 30.3267,72.838 31.4933,71.5046 33,70.5C 34.2568,72.7458 36.0901,74.0791 38.5,74.5 Z"/></g>
<g><path style="opacity:0.016" fill="#e8f1f3" d="M 79.5,74.5 C 79.8333,74.5 80.1667,74.5 80.5,74.5C 80.573,76.0269 79.9063,77.0269 78.5,77.5C 78.5569,76.391 78.8902,75.391 79.5,74.5 Z"/></g>
<g><path style="opacity:0.18" fill="#d4e4ee" d="M 130.5,73.5 C 132.326,75.1475 133.66,77.1475 134.5,79.5C 133.167,78.8333 132.167,77.8333 131.5,76.5C 130.89,75.609 130.557,74.609 130.5,73.5 Z"/></g>
<g><path style="opacity:1" fill="#2ecbe4" d="M 36.5,78.5 C 37.9778,78.238 39.3112,78.5713 40.5,79.5C 39.2086,80.5272 39.2086,81.5272 40.5,82.5C 35.3026,83.0495 30.3026,84.3829 25.5,86.5C 23.4706,85.3707 23.1373,85.8707 24.5,88C 22.9391,88.3176 21.7724,89.1509 21,90.5C 20.6667,89.8333 20.3333,89.1667 20,88.5C 19.2411,90.0629 18.0744,91.0629 16.5,91.5C 16.5,90.8333 16.5,90.1667 16.5,89.5C 18.588,87.6644 19.9213,85.3311 20.5,82.5C 26.473,83.2581 31.8063,81.9248 36.5,78.5 Z"/></g>
<g><path style="opacity:0.004" fill="#eef3f5" d="M 102.5,77.5 C 103.906,77.9731 104.573,78.9731 104.5,80.5C 103.094,80.0269 102.427,79.0269 102.5,77.5 Z"/></g>
<g><path style="opacity:1" fill="#1d97d0" d="M 120.5,82.5 C 118.364,84.9608 115.697,86.6274 112.5,87.5C 112.5,88.5 112.5,89.5 112.5,90.5C 112.167,90.5 111.833,90.5 111.5,90.5C 110.529,88.5168 109.529,86.5168 108.5,84.5C 108.5,82.8333 108.5,81.1667 108.5,79.5C 111.493,78.8654 114.493,78.6987 117.5,79C 118.833,79.6667 118.833,80.3333 117.5,81C 118.244,82.0386 119.244,82.5386 120.5,82.5 Z"/></g>
<g><path style="opacity:0.204" fill="#d6eaee" d="M 50.5,78.5 C 50.3404,80.153 49.6737,81.4863 48.5,82.5C 48.2291,80.6203 48.8958,79.287 50.5,78.5 Z"/></g>
<g><path style="opacity:0.994" fill="#43accf" d="M 86.5,76.5 C 85.3314,81.3247 83.998,85.9914 82.5,90.5C 82.1959,88.2043 81.1959,87.871 79.5,89.5C 80.3234,86.5394 80.99,83.5394 81.5,80.5C 83.309,78.9009 84.6424,76.9009 85.5,74.5C 86.2975,74.9569 86.6309,75.6236 86.5,76.5 Z"/></g>
<g><path style="opacity:0.086" fill="#e2ecf0" d="M 92.5,73.5 C 92.1667,76.8333 91.8333,80.1667 91.5,83.5C 91.5,84.1667 91.1667,84.5 90.5,84.5C 90.2511,80.5422 90.9177,76.8756 92.5,73.5 Z"/></g>
<g><path style="opacity:0.663" fill="#bdd9e5" d="M 104.5,80.5 C 105.167,80.5 105.833,80.5 106.5,80.5C 106.833,81.8333 107.167,83.1667 107.5,84.5C 106.026,83.5637 105.026,82.2303 104.5,80.5 Z"/></g>
<g><path style="opacity:0.145" fill="#dce7f0" d="M 134.5,79.5 C 135.906,79.9731 136.573,80.9731 136.5,82.5C 135.094,82.0269 134.427,81.0269 134.5,79.5 Z"/></g>
<g><path style="opacity:1" fill="#29c4e1" d="M 47.5,79.5 C 45.1799,81.4192 42.8466,83.4192 40.5,85.5C 39.914,85.2907 39.414,84.9574 39,84.5C 34.6847,86.7637 30.1847,88.5971 25.5,90C 24.9288,91.2051 24.2621,92.3717 23.5,93.5C 21.1772,92.3284 18.8439,92.3284 16.5,93.5C 16.5,92.8333 16.5,92.1667 16.5,91.5C 18.0744,91.0629 19.2411,90.0629 20,88.5C 20.3333,89.1667 20.6667,89.8333 21,90.5C 21.7724,89.1509 22.9391,88.3176 24.5,88C 23.1373,85.8707 23.4706,85.3707 25.5,86.5C 30.3026,84.3829 35.3026,83.0495 40.5,82.5C 40.81,83.7383 41.31,83.7383 42,82.5C 42.8564,80.1316 43.6897,77.7983 44.5,75.5C 45.5,75.5 46.5,75.5 47.5,75.5C 47.5,76.8333 47.5,78.1667 47.5,79.5 Z"/></g>
<g><path style="opacity:0.953" fill="#50a9cb" d="M 95.5,71.5 C 94.2053,75.2671 93.5387,79.2671 93.5,83.5C 92.8333,83.5 92.1667,83.5 91.5,83.5C 91.8333,80.1667 92.1667,76.8333 92.5,73.5C 93.6005,71.7226 94.4338,69.7226 95,67.5C 95.49,68.7932 95.6567,70.1266 95.5,71.5 Z"/></g>
<g><path style="opacity:0.51" fill="#a4c1cb" d="M 102.5,75.5 C 102.5,76.1667 102.5,76.8333 102.5,77.5C 101.532,79.6074 101.198,81.9407 101.5,84.5C 100.833,84.5 100.167,84.5 99.5,84.5C 99.5,83.8333 99.5,83.1667 99.5,82.5C 99.5,81.8333 99.5,81.1667 99.5,80.5C 99.9724,78.4687 100.972,76.8021 102.5,75.5 Z"/></g>
<g><path style="opacity:0.827" fill="#c0e7ed" d="M 20.5,80.5 C 20.5,81.1667 20.5,81.8333 20.5,82.5C 19.9213,85.3311 18.588,87.6644 16.5,89.5C 17.0421,86.0878 18.3754,83.0878 20.5,80.5 Z"/></g>
<g><path style="opacity:0.335" fill="#cee3ec" d="M 95.5,71.5 C 94.6506,79.8655 94.6506,88.1988 95.5,96.5C 94.1045,92.4091 93.4379,88.0758 93.5,83.5C 93.5387,79.2671 94.2053,75.2671 95.5,71.5 Z"/></g>
<g><path style="opacity:1" fill="#1a8ecb" d="M 129.5,76.5 C 130.167,76.5 130.833,76.5 131.5,76.5C 132.167,77.8333 133.167,78.8333 134.5,79.5C 134.427,81.0269 135.094,82.0269 136.5,82.5C 136.5,83.1667 136.5,83.8333 136.5,84.5C 134.898,85.536 133.398,85.536 132,84.5C 131.167,82.5 130.333,80.5 129.5,78.5C 128.551,81.1258 128.551,83.7925 129.5,86.5C 127.801,86.3796 126.135,86.0463 124.5,85.5C 122.527,86.806 120.861,88.4727 119.5,90.5C 117.754,88.1459 115.421,87.1459 112.5,87.5C 115.697,86.6274 118.364,84.9608 120.5,82.5C 120.5,81.1667 120.5,79.8333 120.5,78.5C 122.39,78.2965 123.89,78.9632 125,80.5C 125.876,78.3645 127.376,77.0312 129.5,76.5 Z"/></g>
<g><path style="opacity:1" fill="#2bbedd" d="M 47.5,79.5 C 47.5,80.5 47.5,81.5 47.5,82.5C 47.5,83.1667 47.5,83.8333 47.5,84.5C 46.6618,84.8417 46.3284,85.5084 46.5,86.5C 45.4341,87.6921 44.6008,87.3588 44,85.5C 38.3815,89.0524 32.2148,91.0524 25.5,91.5C 25.5,92.5 25.5,93.5 25.5,94.5C 23.5229,95.1495 21.6895,95.1495 20,94.5C 18.9412,94.6301 18.1079,95.1301 17.5,96C 19.607,97.2635 20.607,99.0968 20.5,101.5C 20.44,102.043 20.1067,102.376 19.5,102.5C 17.4027,100.247 15.0694,99.5804 12.5,100.5C 12.5,99.8333 12.5,99.1667 12.5,98.5C 13.8333,96.8333 15.1667,95.1667 16.5,93.5C 18.8439,92.3284 21.1772,92.3284 23.5,93.5C 24.2621,92.3717 24.9288,91.2051 25.5,90C 30.1847,88.5971 34.6847,86.7637 39,84.5C 39.414,84.9574 39.914,85.2907 40.5,85.5C 42.8466,83.4192 45.1799,81.4192 47.5,79.5 Z"/></g>
<g><path style="opacity:0.009" fill="#f1f7f9" d="M 47.5,82.5 C 47.8333,82.5 48.1667,82.5 48.5,82.5C 49.4475,83.9779 50.7809,84.9779 52.5,85.5C 50.5853,85.7845 48.9187,85.4511 47.5,84.5C 47.5,83.8333 47.5,83.1667 47.5,82.5 Z"/></g>
<g><path style="opacity:0.435" fill="#e6edf0" d="M 99.5,84.5 C 100.167,84.5 100.833,84.5 101.5,84.5C 102.465,85.7211 102.298,87.0544 101,88.5C 99.8118,87.4366 99.3118,86.1033 99.5,84.5 Z"/></g>
<g><path style="opacity:0.473" fill="#c4e3ec" d="M 47.5,84.5 C 48.9187,85.4511 50.5853,85.7845 52.5,85.5C 59.4505,84.4069 66.4505,84.2402 73.5,85C 74.9156,86.9151 74.5822,88.4151 72.5,89.5C 72.5,88.5 72.5,87.5 72.5,86.5C 67.1667,86.5 61.8333,86.5 56.5,86.5C 53.1667,86.5 49.8333,86.5 46.5,86.5C 46.3284,85.5084 46.6618,84.8417 47.5,84.5 Z"/></g>
<g><path style="opacity:0.11" fill="#dce8ef" d="M 107.5,84.5 C 107.833,84.5 108.167,84.5 108.5,84.5C 109.529,86.5168 110.529,88.5168 111.5,90.5C 109.178,89.1979 107.845,87.1979 107.5,84.5 Z"/></g>
<g><path style="opacity:1" fill="#429bca" d="M 91.5,83.5 C 92.1667,83.5 92.8333,83.5 93.5,83.5C 93.4379,88.0758 94.1045,92.4091 95.5,96.5C 95.5,96.8333 95.5,97.1667 95.5,97.5C 95.5,98.8333 95.5,100.167 95.5,101.5C 93.4485,96.1714 92.1152,96.5047 91.5,102.5C 90.5104,96.69 90.1771,90.69 90.5,84.5C 91.1667,84.5 91.5,84.1667 91.5,83.5 Z"/></g>
<g><path style="opacity:1" fill="#1b85c7" d="M 136.5,84.5 C 138.326,86.1475 139.66,88.1475 140.5,90.5C 139.833,90.5 139.167,90.5 138.5,90.5C 137.88,88.0233 136.88,88.0233 135.5,90.5C 134.476,89.1468 133.143,88.4802 131.5,88.5C 131.439,90.5922 130.439,92.0922 128.5,93C 122.6,92.2584 119.6,94.7584 119.5,100.5C 117.5,98.1667 115.5,95.8333 113.5,93.5C 113.443,92.391 113.11,91.391 112.5,90.5C 112.5,89.5 112.5,88.5 112.5,87.5C 115.421,87.1459 117.754,88.1459 119.5,90.5C 120.861,88.4727 122.527,86.806 124.5,85.5C 126.135,86.0463 127.801,86.3796 129.5,86.5C 128.551,83.7925 128.551,81.1258 129.5,78.5C 130.333,80.5 131.167,82.5 132,84.5C 133.398,85.536 134.898,85.536 136.5,84.5 Z"/></g>
<g><path style="opacity:1" fill="#28b8dc" d="M 46.5,86.5 C 49.8333,86.5 53.1667,86.5 56.5,86.5C 55.4479,88.256 53.7812,88.9227 51.5,88.5C 49.1432,88.3367 46.8098,88.5034 44.5,89C 40.2475,91.3551 35.5809,93.6884 30.5,96C 28.7818,96.346 27.1151,96.846 25.5,97.5C 24.914,97.2907 24.414,96.9574 24,96.5C 22.3743,97.9555 21.2076,99.6221 20.5,101.5C 20.607,99.0968 19.607,97.2635 17.5,96C 18.1079,95.1301 18.9412,94.6301 20,94.5C 21.6895,95.1495 23.5229,95.1495 25.5,94.5C 25.5,93.5 25.5,92.5 25.5,91.5C 32.2148,91.0524 38.3815,89.0524 44,85.5C 44.6008,87.3588 45.4341,87.6921 46.5,86.5 Z"/></g>
<g><path style="opacity:1" fill="#24aad8" d="M 56.5,86.5 C 61.8333,86.5 67.1667,86.5 72.5,86.5C 72.5,87.5 72.5,88.5 72.5,89.5C 71.0652,90.9133 70.0652,92.58 69.5,94.5C 69.5,93.1667 69.5,91.8333 69.5,90.5C 66.5809,90.3384 63.5809,90.3384 60.5,90.5C 59.1552,91.3467 58.1552,92.5134 57.5,94C 54.348,94.3949 51.348,95.2282 48.5,96.5C 47.2502,96.4226 46.4169,95.756 46,94.5C 45.3292,95.2524 44.4959,95.5858 43.5,95.5C 46.4673,93.5108 49.1339,91.1774 51.5,88.5C 53.7812,88.9227 55.4479,88.256 56.5,86.5 Z"/></g>
<g><path style="opacity:0.098" fill="#e3ebf1" d="M 136.5,82.5 C 139.605,85.2749 141.938,88.6082 143.5,92.5C 142.5,91.8333 141.5,91.1667 140.5,90.5C 139.66,88.1475 138.326,86.1475 136.5,84.5C 136.5,83.8333 136.5,83.1667 136.5,82.5 Z"/></g>
<g><path style="opacity:0.82" fill="#bce1e9" d="M 16.5,89.5 C 16.5,90.1667 16.5,90.8333 16.5,91.5C 16.5,92.1667 16.5,92.8333 16.5,93.5C 15.1667,95.1667 13.8333,96.8333 12.5,98.5C 13.0421,95.0878 14.3754,92.0878 16.5,89.5 Z"/></g>
<g><path style="opacity:0.114" fill="#d9e4ec" d="M 111.5,90.5 C 111.833,90.5 112.167,90.5 112.5,90.5C 113.11,91.391 113.443,92.391 113.5,93.5C 112.094,93.0269 111.427,92.0269 111.5,90.5 Z"/></g>
<g><path style="opacity:1" fill="#0f78c4" d="M 138.5,90.5 C 138.5,91.5 138.5,92.5 138.5,93.5C 136.064,93.317 133.897,93.9837 132,95.5C 131.374,93.0087 130.541,93.0087 129.5,95.5C 128.914,95.2907 128.414,94.9574 128,94.5C 127.187,96.4357 126.687,98.4357 126.5,100.5C 124.167,100.5 121.833,100.5 119.5,100.5C 119.6,94.7584 122.6,92.2584 128.5,93C 130.439,92.0922 131.439,90.5922 131.5,88.5C 133.143,88.4802 134.476,89.1468 135.5,90.5C 136.88,88.0233 137.88,88.0233 138.5,90.5 Z"/></g>
<g><path style="opacity:1" fill="#26b1da" d="M 51.5,88.5 C 49.1339,91.1774 46.4673,93.5108 43.5,95.5C 38.0306,97.8991 32.364,99.7324 26.5,101C 24.9716,102.361 23.3049,103.528 21.5,104.5C 19.9291,103.691 18.2624,103.357 16.5,103.5C 16.8808,105.942 16.2141,106.609 14.5,105.5C 13.6919,105.808 13.0253,106.308 12.5,107C 15.8168,107.498 19.1501,107.665 22.5,107.5C 22.5,107.833 22.5,108.167 22.5,108.5C 17.9677,108.818 13.6344,108.485 9.5,107.5C 10.038,105.883 10.3713,104.216 10.5,102.5C 11.1667,101.833 11.8333,101.167 12.5,100.5C 15.0694,99.5804 17.4027,100.247 19.5,102.5C 20.1067,102.376 20.44,102.043 20.5,101.5C 21.2076,99.6221 22.3743,97.9555 24,96.5C 24.414,96.9574 24.914,97.2907 25.5,97.5C 27.1151,96.846 28.7818,96.346 30.5,96C 35.5809,93.6884 40.2475,91.3551 44.5,89C 46.8098,88.5034 49.1432,88.3367 51.5,88.5 Z"/></g>
<g><path style="opacity:1" fill="#1ea5d5" d="M 69.5,90.5 C 68.5,90.5 67.5,90.5 66.5,90.5C 66.812,94.0229 65.4787,95.3563 62.5,94.5C 55.7341,98.2508 48.7341,101.584 41.5,104.5C 40.914,104.291 40.414,103.957 40,103.5C 35.9457,105.6 31.779,107.267 27.5,108.5C 25.8333,108.5 24.1667,108.5 22.5,108.5C 22.5,108.167 22.5,107.833 22.5,107.5C 26.216,105.469 30.216,104.469 34.5,104.5C 34.5,103.5 34.5,102.5 34.5,101.5C 37.8394,101.11 41.1727,100.61 44.5,100C 46.5444,99.5017 47.8777,98.335 48.5,96.5C 51.348,95.2282 54.348,94.3949 57.5,94C 58.1552,92.5134 59.1552,91.3467 60.5,90.5C 63.5809,90.3384 66.5809,90.3384 69.5,90.5 Z"/></g>
<g><path style="opacity:1" fill="#319ac8" d="M 82.5,90.5 C 82.5,91.8333 82.5,93.1667 82.5,94.5C 82.1667,94.5 81.8333,94.5 81.5,94.5C 81.6495,93.448 81.4828,92.448 81,91.5C 79.0418,97.0001 77.8751,102.667 77.5,108.5C 76.4523,102.13 77.1189,95.7966 79.5,89.5C 81.1959,87.871 82.1959,88.2043 82.5,90.5 Z"/></g>
<g><path style="opacity:0.071" fill="#e1ecf1" d="M 86.5,76.5 C 86.8333,76.5 87.1667,76.5 87.5,76.5C 85.5593,83.8849 83.8926,91.2182 82.5,98.5C 82.5,97.1667 82.5,95.8333 82.5,94.5C 82.5,93.1667 82.5,91.8333 82.5,90.5C 83.998,85.9914 85.3314,81.3247 86.5,76.5 Z"/></g>
<g><path style="opacity:0.094" fill="#e3eaf1" d="M 143.5,92.5 C 145.25,93.6594 146.25,95.326 146.5,97.5C 144.75,96.3406 143.75,94.674 143.5,92.5 Z"/></g>
<g><path style="opacity:0.004" fill="#dceaf1" d="M 72.5,89.5 C 71.0632,95.3354 69.3965,101.002 67.5,106.5C 67.5,104.833 67.5,103.167 67.5,101.5C 68.6118,99.4006 69.2785,97.0673 69.5,94.5C 70.0652,92.58 71.0652,90.9133 72.5,89.5 Z"/></g>
<g><path style="opacity:0.094" fill="#dae5ee" d="M 113.5,93.5 C 115.5,95.8333 117.5,98.1667 119.5,100.5C 120.758,102.687 121.758,105.02 122.5,107.5C 118.719,103.376 115.719,98.7091 113.5,93.5 Z"/></g>
<g><path style="opacity:1" fill="#20abd7" d="M 48.5,96.5 C 47.8777,98.335 46.5444,99.5017 44.5,100C 41.1727,100.61 37.8394,101.11 34.5,101.5C 34.5,102.5 34.5,103.5 34.5,104.5C 30.216,104.469 26.216,105.469 22.5,107.5C 19.1501,107.665 15.8168,107.498 12.5,107C 13.0253,106.308 13.6919,105.808 14.5,105.5C 16.2141,106.609 16.8808,105.942 16.5,103.5C 18.2624,103.357 19.9291,103.691 21.5,104.5C 23.3049,103.528 24.9716,102.361 26.5,101C 32.364,99.7324 38.0306,97.8991 43.5,95.5C 44.4959,95.5858 45.3292,95.2524 46,94.5C 46.4169,95.756 47.2502,96.4226 48.5,96.5 Z"/></g>
<g><path style="opacity:1" fill="#1d9fd2" d="M 69.5,90.5 C 69.5,91.8333 69.5,93.1667 69.5,94.5C 69.2785,97.0673 68.6118,99.4006 67.5,101.5C 65.5694,101.119 63.7361,99.7852 62,97.5C 60.5,98.6667 59,99.8333 57.5,101C 51.0844,103.066 45.0844,105.566 39.5,108.5C 35.5,108.5 31.5,108.5 27.5,108.5C 31.779,107.267 35.9457,105.6 40,103.5C 40.414,103.957 40.914,104.291 41.5,104.5C 48.7341,101.584 55.7341,98.2508 62.5,94.5C 65.4787,95.3563 66.812,94.0229 66.5,90.5C 67.5,90.5 68.5,90.5 69.5,90.5 Z"/></g>
<g><path style="opacity:1" fill="#258fc9" d="M 81.5,94.5 C 81.5,99.1667 81.5,103.833 81.5,108.5C 80.1667,108.5 78.8333,108.5 77.5,108.5C 77.8751,102.667 79.0418,97.0001 81,91.5C 81.4828,92.448 81.6495,93.448 81.5,94.5 Z"/></g>
<g><path style="opacity:1" fill="#1771bc" d="M 138.5,90.5 C 139.167,90.5 139.833,90.5 140.5,90.5C 141.5,91.1667 142.5,91.8333 143.5,92.5C 143.75,94.674 144.75,96.3406 146.5,97.5C 146.5,98.1667 146.5,98.8333 146.5,99.5C 147.833,100.833 149.167,102.167 150.5,103.5C 151.167,105.167 151.833,106.833 152.5,108.5C 142.418,108.807 132.418,108.474 122.5,107.5C 121.758,105.02 120.758,102.687 119.5,100.5C 121.833,100.5 124.167,100.5 126.5,100.5C 126.687,98.4357 127.187,96.4357 128,94.5C 128.414,94.9574 128.914,95.2907 129.5,95.5C 130.541,93.0087 131.374,93.0087 132,95.5C 133.897,93.9837 136.064,93.317 138.5,93.5C 138.5,92.5 138.5,91.5 138.5,90.5 Z"/></g>
<g><path style="opacity:0.071" fill="#e5eff2" d="M 12.5,98.5 C 12.5,99.1667 12.5,99.8333 12.5,100.5C 11.8333,101.167 11.1667,101.833 10.5,102.5C 10.2291,100.62 10.8958,99.287 12.5,98.5 Z"/></g>
<g><path style="opacity:1" fill="#2283c2" d="M 95.5,101.5 C 95.8333,102.833 96.1667,104.167 96.5,105.5C 96.5,106.5 96.5,107.5 96.5,108.5C 95.1667,108.5 93.8333,108.5 92.5,108.5C 91.5386,106.735 91.2053,104.735 91.5,102.5C 92.1152,96.5047 93.4485,96.1714 95.5,101.5 Z"/></g>
<g><path style="opacity:0.086" fill="#dfe7f0" d="M 146.5,97.5 C 148.822,98.8021 150.155,100.802 150.5,103.5C 149.167,102.167 147.833,100.833 146.5,99.5C 146.5,98.8333 146.5,98.1667 146.5,97.5 Z"/></g>
<g><path style="opacity:0.012" fill="#e5edf3" d="M 95.5,97.5 C 96.7682,99.9052 97.4349,102.572 97.5,105.5C 97.1667,105.5 96.8333,105.5 96.5,105.5C 96.1667,104.167 95.8333,102.833 95.5,101.5C 95.5,100.167 95.5,98.8333 95.5,97.5 Z"/></g>
<g><path style="opacity:1" fill="#096cbc" d="M 146.5,99.5 C 146.979,102.064 147.645,104.564 148.5,107C 141.174,107.5 133.841,107.666 126.5,107.5C 126.854,105.459 126.854,103.626 126.5,102C 128.957,99.4597 131.957,98.4597 135.5,99C 133.552,99.9832 131.718,101.15 130,102.5C 129.333,103.5 129.333,104.5 130,105.5C 131.351,103.981 132.851,102.648 134.5,101.5C 135.258,102.811 136.258,103.311 137.5,103C 138.249,101.266 138.749,99.433 139,97.5C 140.667,97.5 142.333,97.5 144,97.5C 144.708,98.3805 145.542,99.0472 146.5,99.5 Z"/></g>
<g><path style="opacity:0.114" fill="#e1eaf0" d="M 90.5,84.5 C 90.1771,90.69 90.5104,96.69 91.5,102.5C 91.2053,104.735 91.5386,106.735 92.5,108.5C 92.5,108.833 92.5,109.167 92.5,109.5C 90.8356,108.051 90.0023,106.051 90,103.5C 89.18,96.9863 89.3467,90.6529 90.5,84.5 Z"/></g>
<g><path style="opacity:1" fill="#1e96cb" d="M 67.5,101.5 C 67.5,103.167 67.5,104.833 67.5,106.5C 58.4299,108.431 49.0966,109.097 39.5,108.5C 45.0844,105.566 51.0844,103.066 57.5,101C 59,99.8333 60.5,98.6667 62,97.5C 63.7361,99.7852 65.5694,101.119 67.5,101.5 Z"/></g>
<g><path style="opacity:0.096" fill="#e8f1f3" d="M 10.5,102.5 C 10.3713,104.216 10.038,105.883 9.5,107.5C 8.66175,107.842 8.32842,108.508 8.5,109.5C 7.59697,106.908 8.26364,104.574 10.5,102.5 Z"/></g>
<g><path style="opacity:0.531" fill="#bddbe9" d="M 67.5,106.5 C 67.5,107.5 67.5,108.5 67.5,109.5C 47.8575,110.571 28.1908,110.571 8.5,109.5C 8.32842,108.508 8.66175,107.842 9.5,107.5C 13.6344,108.485 17.9677,108.818 22.5,108.5C 24.1667,108.5 25.8333,108.5 27.5,108.5C 31.5,108.5 35.5,108.5 39.5,108.5C 49.0966,109.097 58.4299,108.431 67.5,106.5 Z"/></g>
<g><path style="opacity:0.535" fill="#c9dde9" d="M 81.5,80.5 C 80.99,83.5394 80.3234,86.5394 79.5,89.5C 77.1189,95.7966 76.4523,102.13 77.5,108.5C 78.8333,108.5 80.1667,108.5 81.5,108.5C 81.5,103.833 81.5,99.1667 81.5,94.5C 81.8333,94.5 82.1667,94.5 82.5,94.5C 82.5,95.8333 82.5,97.1667 82.5,98.5C 82.8226,102.226 82.4892,105.893 81.5,109.5C 79.8333,110.833 78.1667,110.833 76.5,109.5C 74.9618,99.2008 76.6285,89.5341 81.5,80.5 Z"/></g>
<g><path style="opacity:0.569" fill="#b9cfe1" d="M 96.5,105.5 C 96.8333,105.5 97.1667,105.5 97.5,105.5C 98.8009,106.884 98.8009,108.384 97.5,110C 95.6131,110.78 93.9464,110.613 92.5,109.5C 92.5,109.167 92.5,108.833 92.5,108.5C 93.8333,108.5 95.1667,108.5 96.5,108.5C 96.5,107.5 96.5,106.5 96.5,105.5 Z"/></g>
<g><path style="opacity:0.547" fill="#b5cce1" d="M 122.5,107.5 C 132.418,108.474 142.418,108.807 152.5,108.5C 152.5,108.833 152.5,109.167 152.5,109.5C 143.733,110.499 134.733,110.666 125.5,110C 123.881,109.764 122.881,108.931 122.5,107.5 Z"/></g>
<g><path style="opacity:0.271" fill="#d4dee8" d="M 150.5,103.5 C 152.194,104.527 153.527,105.861 154.5,107.5C 154.5,108.167 154.5,108.833 154.5,109.5C 153.833,109.5 153.167,109.5 152.5,109.5C 152.5,109.167 152.5,108.833 152.5,108.5C 151.833,106.833 151.167,105.167 150.5,103.5 Z"/></g>
</svg>
